<svg xmlns="http://www.w3.org/2000/svg" viewBox="0 0 512 512" role="img" aria-labelledby="title desc">
  <title id="title">Shiftor Google Play icon</title>
  <desc id="desc">Full-square Google Play listing icon with centered Shiftor mark.</desc>
  <defs>
    <linearGradient id="playBg" x1="256" y1="0" x2="256" y2="512" gradientUnits="userSpaceOnUse">
      <stop offset="0" stop-color="#F7FAFF" />
      <stop offset="1" stop-color="#E9EEF7" />
    </linearGradient>
    <linearGradient id="playBlue" x1="87" y1="58" x2="365" y2="278" gradientUnits="userSpaceOnUse">
      <stop offset="0" stop-color="#2F7DF2" />
      <stop offset="1" stop-color="#2467D8" />
    </linearGradient>
    <linearGradient id="playGreen" x1="93" y1="334" x2="360" y2="120" gradientUnits="userSpaceOnUse">
      <stop offset="0" stop-color="#2D9A56" />
      <stop offset="1" stop-color="#4BC355" />
    </linearGradient>
  </defs>

  <rect width="512" height="512" fill="url(#playBg)" />
  <g transform="translate(118 118) scale(1.0952380952)">
    <path
      d="M48 100c0-29 23-52 52-52h192c10 0 15 12 8 19L183 184c-15 15-36 24-57 24h-26c-29 0-52-23-52-52v-56Z"
      fill="url(#playBlue)"
    />
    <path
      d="M48 300l117-117c15-15 36-24 57-24h26c29 0 52 23 52 52v37c0 29-23 52-52 52H48Z"
      fill="url(#playGreen)"
    />
  </g>
</svg>
