<svg xmlns="http://www.w3.org/2000/svg" viewBox="0 0 1024 1024" role="img" aria-labelledby="title desc">
  <title id="title">Shiftor app icon</title>
  <desc id="desc">Rounded square app icon using the Shiftor mark.</desc>
  <defs>
    <linearGradient id="iconBg" x1="512" y1="128" x2="512" y2="896" gradientUnits="userSpaceOnUse">
      <stop offset="0" stop-color="#F7FAFF" />
      <stop offset="1" stop-color="#E9EEF7" />
    </linearGradient>
    <linearGradient id="iconBlue" x1="300" y1="300" x2="700" y2="640" gradientUnits="userSpaceOnUse">
      <stop offset="0" stop-color="#2F7DF2" />
      <stop offset="1" stop-color="#2467D8" />
    </linearGradient>
    <linearGradient id="iconGreen" x1="310" y1="764" x2="730" y2="420" gradientUnits="userSpaceOnUse">
      <stop offset="0" stop-color="#2D9A56" />
      <stop offset="1" stop-color="#4BC355" />
    </linearGradient>
  </defs>

  <rect x="128" y="128" width="768" height="768" rx="170" fill="url(#iconBg)" />
  <rect x="128.5" y="128.5" width="767" height="767" rx="169.5" fill="none" stroke="#D8E2F2" />

  <path
    d="M300 286h438c8 0 12 8 6 14L373 612c-18 15-42 26-70 26-50 0-90-40-90-90V376c0-50 40-90 87-90Z"
    fill="url(#iconBlue)"
  />
  <path
    d="M201 737h354c85 0 147-62 147-147V456c0-48-39-87-87-87-22 0-42 8-58 22L201 737Z"
    fill="url(#iconGreen)"
  />
</svg>
